/* XPM */
static char *result[] = {
/* columns rows colors chars-per-pixel */
"32 32 194 2 ",
"   c #5579EA",
".  c #5B7EE8",
"X  c #5E7DE8",
"o  c #3DAFDF",
"O  c #3BB2DF",
"+  c #39B5DF",
"@  c #35BBDE",
"#  c #34BDDF",
"$  c #3FABE2",
"%  c #3BAEE3",
"&  c #3EAEE1",
"*  c #3FAFE1",
"=  c #3EACE2",
"-  c #3FACE2",
";  c #3FADE2",
":  c #3CAFE2",
">  c #3DAFE2",
",  c #3EAEE5",
"<  c #37B2E3",
"1  c #36B7E1",
"2  c #34B7E2",
"3  c #37B7E2",
"4  c #36B0E6",
"5  c #37B3E6",
"6  c #37B6E5",
"7  c #3BB2E1",
"8  c #3AB3E1",
"9  c #3BB3E1",
"0  c #3AB0E3",
"q  c #3BB2E2",
"w  c #3CB3E0",
"e  c #3DB0E2",
"r  c #3CB0E3",
"t  c #3CB1E3",
"y  c #39B4E1",
"u  c #39B6E0",
"i  c #38B7E0",
"p  c #38B6E1",
"a  c #38B7E1",
"s  c #3AB6E1",
"d  c #39B4E2",
"f  c #3BB4E2",
"g  c #38B6E2",
"h  c #38B7E2",
"j  c #34B9E1",
"k  c #35B9E1",
"l  c #36B8E1",
"z  c #36BAE0",
"x  c #37BAE0",
"c  c #33BEE0",
"v  c #32BFE0",
"b  c #33BFE0",
"n  c #30BEE2",
"m  c #34BDE0",
"M  c #34BEE0",
"N  c #34B9E6",
"B  c #30BFE6",
"V  c #38BDEA",
"C  c #5A82E7",
"Z  c #5C83E7",
"A  c #5884E6",
"S  c #5885E6",
"D  c #5A84E7",
"F  c #5489E5",
"G  c #558AE6",
"H  c #548AE7",
"J  c #548BE7",
"K  c #518EE6",
"L  c #518FE6",
"P  c #528FE7",
"I  c #548CE7",
"U  c #578CE7",
"Y  c #5B81E9",
"T  c #5B82E9",
"R  c #5884E8",
"E  c #5985E8",
"W  c #5589E8",
"Q  c #5688E8",
"!  c #548BE8",
"~  c #528CE9",
"^  c #538EE9",
"/  c #4C97E3",
"(  c #4F91E5",
")  c #4F93E4",
"_  c #4F93E6",
"`  c #4E93E7",
"'  c #4D95E5",
"]  c #4D96E4",
"[  c #4C97E4",
"{  c #4F94E6",
"}  c #4E95E7",
"|  c #4D96E6",
" . c #469FE3",
".. c #479EE5",
"X. c #479FE5",
"o. c #4C98E3",
"O. c #499DE3",
"+. c #489EE3",
"@. c #4B98E5",
"#. c #4A9AE4",
"$. c #4A9AE5",
"%. c #4B9AE5",
"&. c #4A99E6",
"*. c #499AE7",
"=. c #4A9AE6",
"-. c #4B9AE6",
";. c #4A9BE6",
":. c #489DE4",
">. c #4C9CE5",
",. c #4B97E9",
"<. c #4D96E9",
"1. c #5190E5",
"2. c #5190E6",
"3. c #5192E6",
"4. c #5192E9",
"5. c #5690EB",
"6. c #6183E8",
"7. c #44A2E1",
"8. c #46A1E2",
"9. c #46A2E2",
"0. c #42A6E1",
"q. c #43A5E3",
"w. c #44A6E2",
"e. c #46A1E4",
"r. c #46A0E5",
"t. c #46A1E5",
"y. c #45A2E4",
"u. c #44A3E4",
"i. c #45A3E7",
"p. c #43A7E4",
"a. c #44A5E6",
"s. c #41A9E1",
"d. c #40ABE1",
"f. c #41A8E3",
"g. c #40A9E3",
"h. c #41A9E3",
"j. c #42A8E2",
"k. c #42A8E3",
"l. c #40AAE2",
"z. c #40ACE1",
"x. c #43A8E5",
"c. c #40AAE4",
"v. c #40AAE5",
"b. c #45A4E8",
"n. c #47A0EC",
"m. c #41AEE9",
"M. c #1FDEDB",
"N. c #1FDEDC",
"B. c #2FC4DF",
"V. c #2EC5DF",
"C. c #2FC5DF",
"Z. c #2FC6DF",
"A. c #2EC7DF",
"S. c #2BCBDD",
"D. c #2BCADF",
"F. c #2DC8DD",
"G. c #2CC8DE",
"H. c #2DC8DE",
"J. c #2CC9DE",
"K. c #2ACCDD",
"L. c #2BCCDD",
"P. c #28CFDD",
"I. c #2ACCDE",
"U. c #2BCCDE",
"Y. c #31C1DF",
"T. c #31C2DF",
"R. c #25D3DD",
"E. c #26D3DC",
"W. c #26D3DD",
"Q. c #26D1DE",
"!. c #27D1DE",
"~. c #23D7DC",
"^. c #25D4DC",
"/. c #25D4DD",
"(. c #24D6DC",
"). c #24D7DC",
"_. c #24D4DE",
"`. c #28D0DD",
"'. c #21DADB",
"]. c #21DBDB",
"[. c #21DBDC",
"{. c #1CE1DA",
"}. c #1DE1DA",
"|. c #1CE2DA",
" X c #1CE2DB",
".X c #1AE5DA",
"XX c #19E6DA",
"oX c #19E6DB",
"OX c #17E9DA",
"+X c #28C9E9",
"@X c #32C1E0",
"#X c #32C2E0",
"$X c #30C4E0",
"%X c None",
/* pixels */
"%X%X%X%X%X%X%X%X%X%X%X%X%X%X%X%X%X%X%XOX%X%X%X%X%X%X%X%X%X%X%X%X",
"%X%X%X%X%X%X%X%X%X%X%X%X%X%X%X%X%XXX.X.XoX%X%X%X%X%X%X%X%X%X%X%X",
"%X%X%X%X%X%X%X%X%X%X%X%X%X%X%X%X X}.}.}.{.|.%X%X%X%X%X%X%X%X%X%X",
"%X%X%X%X%X%X%X%X%X%X%X%X%X%X%XM.M.M.M.M.M.M.N.%X%X%X%X%X%X%X%X%X",
"%X%X%X%X%X%X%X%X%X%X%X%X%X[.].'.'.'.'.'.'.'.].].%X%X%X%X%X%X%X%X",
"%X%X%X%X%X%X%X%X%X%X%X%X~.(.(.(.(.).~.(.~.(.(.).~.%X%X%X%X%X%X%X",
"%X%X%X%X%X%X%X%X%X%X_.^.W.E.W.E.%X%XR.W.E.E.W.W.W./.%X%X%X%X%X%X",
"%X%X%X%X%X%X%X%X%X`.P.P.P.!.%X%X%X%XP.`.%X%XQ.P.`.P.`.%X%X%X%X%X",
"%X%X%X%X%X%X%X%XI.L.S.I.%X%X%X%X%X%XL.L.%X%X%X%XS.U.L.K.%X%X%X%X",
"%X%X%X%X%X%XG.G.J.J.%X%X%X%X%X%X%X%XH.J.%X%X%X%X%XF.G.H.D.%X%X%X",
"%X%X%X%X%XC.B.B.$X%X%X%X%X%X%X%X%X%XB.C.%X%X%X%X%X%XZ.V.A.%X%X%X",
"%X%X%X%XY.Y.@X%X%X%X%X%X%X%X%X%X%X%XY.T.%X%X%X%X%X%X%X%X%X%X#X%X",
"%X%Xv m M %X%X%X%X%X%X%X%X%X%X%X%Xb m v %X%X%X%X%X%X%Xm # c # n ",
"%Xz z %X%X%X%X%X%X%X%X%X%X%X%X%X%Xj x m %X%X%X2 k z z z z z @ %X",
"+XO a p 3 %X%X%X%X%X%X%X%X%X%X%X%Xg a h %X%Xa i p u l 1 a + V %X",
"%XB o 8 8 9 8 8 d %X%X%X%X%X%X%X%X9 8 %X%Xf 7 y s %X%X< w 5 %X%X",
"%X%XN z.> t r & > e : > q %X% : > > : %X%X%X%X%X%X%X4 * 0 %X%X%X",
"%X%X%X6 s.$ %X%X%Xl.- - $ - - $ = - $ %X%X%X%X%X%X%Xd.; %X%X%X%X",
"%X%X%X%X, w.j.%X%X%X%X%Xg.f.c.%X%Xh.f.%X%X%X%X%X%Xk.0.%X%X%X%X%X",
"%X%X%X%X%Xv.8.9.%X%X%X%X%Xq.p.%X%Xq.q.%X%X%X%X%Xx.7.m.%X%X%X%X%X",
"%X%X%X%X%X%Xa.+.O.%X%X%X%Xu.t.%X%Xe.y.%X%X%X%Xb. .i.%X%X%X%X%X%X",
"%X%X%X%X%X%X%XX.#.o.%X%X%X>...%X%X:...%X%X%X%X:.r.%X%X%X%X%X%X%X",
"%X%X%X%X%X%X%X%X=.[ ] %X%X%X$.%X%X%.&.%X%X%X;./ %X%X%X%X%X%X%X%X",
"%X%X%X%X%X%X%X%X%X{ ) @.%X%X' -.%X| | %X%X*.) n.%X%X%X%X%X%X%X%X",
"%X%X%X%X%X%X%X%X%X%X2.( U %X} 3.%X_ %X%X%X1.<.%X%X%X%X%X%X%X%X%X",
"%X%X%X%X%X%X%X%X%X%X%XG K ,.4.P %XL %X%XP ` %X%X%X%X%X%X%X%X%X%X",
"%X%X%X%X%X%X%X%X%X%X%X%XS H J I ! J %X^ F %X%X%X%X%X%X%X%X%X%X%X",
"%X%X%X%X%X%X%X%X%X%X%X%X%XC Q Q Q W ~ A %X%X%X%X%X%X%X%X%X%X%X%X",
"%X%X%X%X%X%X%X%X%X%X%X%X%X%XZ E R R D 5.%X%X%X%X%X%X%X%X%X%X%X%X",
"%X%X%X%X%X%X%X%X%X%X%X%X%X%X%XX Y T   %X%X%X%X%X%X%X%X%X%X%X%X%X",
"%X%X%X%X%X%X%X%X%X%X%X%X%X%X%X%X6.. %X%X%X%X%X%X%X%X%X%X%X%X%X%X",
"%X%X%X%X%X%X%X%X%X%X%X%X%X%X%X%X%X%X%X%X%X%X%X%X%X%X%X%X%X%X%X%X"
};
