/* XPM */
static char *result[] = {
/* columns rows colors chars-per-pixel */
"128 128 64 1 ",
"  c #5E7CE7",
". c #5673EB",
"X c #5C75EB",
"o c #5D7DE9",
"O c #607DE9",
"+ c #3DAFDF",
"@ c #33B6DE",
"# c #3AB6DF",
"$ c #33BFDF",
"% c #38BCDF",
"& c #33A4E2",
"* c #3EADE2",
"= c #3EA5E9",
"- c #3DABE9",
"; c #2AB2EC",
": c #36B6E2",
"> c #3AB3E1",
", c #35BBE0",
"< c #38B8E1",
"1 c #35B5EA",
"2 c #3AB6EB",
"3 c #33B9EB",
"4 c #40B1DE",
"5 c #4F8FE8",
"6 c #5787E7",
"7 c #5885E7",
"8 c #538DE7",
"9 c #5786E8",
"0 c #5A83E8",
"q c #5589E8",
"w c #5A89EA",
"e c #4E95E6",
"r c #479FE4",
"t c #4A9BE5",
"y c #4D95EA",
"u c #479EE9",
"i c #4B9BEA",
"p c #5191E6",
"a c #5294E9",
"s c #5990EA",
"d c #519BEA",
"f c #6184E8",
"g c #44A4E4",
"h c #49A2E4",
"j c #41AAE3",
"k c #45A2ED",
"l c #4EA2EA",
"z c #44ABEA",
"x c #1FDEDB",
"c c #2EC6DE",
"v c #2ACCDE",
"b c #31C2DF",
"n c #25D4DC",
"m c #28D0DD",
"M c #21DADC",
"N c #1CE3DA",
"B c #15EBDD",
"V c #18E8D9",
"C c #2EC6E0",
"Z c #2BCBE1",
"A c #2EC2EA",
"S c #32C2E1",
"D c #26D1E2",
"F c None",
/* pixels */
"FFFFFFFFFFFFFFFFFFFFFFFFFFFFFFFFFFFFFFFFFFFFFFFFFFFFFFFFFFFFFFFFFFFFFFFFFFFFFFFFFFFFFFFFFFFFFFFFFFFFFFFFFFFFFFFFFFFFFFFFFFFFFFFF",
"FFFFFFFFFFFFFFFFFFFFFFFFFFFFFFFFFFFFFFFFFFFFFFFFFFFFFFFFFFFFFFFFFFFFFFFFFFFVVVFFFFFFFFFFFFFFFFFFFFFFFFFFFFFFFFFFFFFFFFFFFFFFFFFF",
"FFFFFFFFFFFFFFFFFFFFFFFFFFFFFFFFFFFFFFFFFFFFFFFFFFFFFFFFFFFFFFFFFFFFFFFFFFVVVVVFFFFFFFFFFFFFFFFFFFFFFFFFFFFFFFFFFFFFFFFFFFFFFFFF",
"FFFFFFFFFFFFFFFFFFFFFFFFFFFFFFFFFFFFFFFFFFFFFFFFFFFFFFFFFFFFFFFFFFFFFFFFFNVVVNVVBFFFFFFFFFFFFFFFFFFFFFFFFFFFFFFFFFFFFFFFFFFFFFFF",
"FFFFFFFFFFFFFFFFFFFFFFFFFFFFFFFFFFFFFFFFFFFFFFFFFFFFFFFFFFFFFFFFFFFFFFFVBNVNNVNVNVFFFFFFFFFFFFFFFFFFFFFFFFFFFFFFFFFFFFFFFFFFFFFF",
"FFFFFFFFFFFFFFFFFFFFFFFFFFFFFFFFFFFFFFFFFFFFFFFFFFFFFFFFFFFFFFFFFFFFFFVNNVNVVNVNVNNFFFFFFFFFFFFFFFFFFFFFFFFFFFFFFFFFFFFFFFFFFFFF",
"FFFFFFFFFFFFFFFFFFFFFFFFFFFFFFFFFFFFFFFFFFFFFFFFFFFFFFFFFFFFFFFFFFFFNNNNNNNNNNNNNVNNFFFFFFFFFFFFFFFFFFFFFFFFFFFFFFFFFFFFFFFFFFFF",
"FFFFFFFFFFFFFFFFFFFFFFFFFFFFFFFFFFFFFFFFFFFFFFFFFFFFFFFFFFFFFFFFFFFNNVNVNNNNBNVNNNNNVFFFFFFFFFFFFFFFFFFFFFFFFFFFFFFFFFFFFFFFFFFF",
"FFFFFFFFFFFFFFFFFFFFFFFFFFFFFFFFFFFFFFFFFFFFFFFFFFFFFFFFFFFFFFFFFNNNNNNNNNNNNNNNNNNNNNFFFFFFFFFFFFFFFFFFFFFFFFFFFFFFFFFFFFFFFFFF",
"FFFFFFFFFFFFFFFFFFFFFFFFFFFFFFFFFFFFFFFFFFFFFFFFFFFFFFFFFFFFFFFFNxNxNxNNNNNxNxNNNNNMNNNFFFFFFFFFFFFFFFFFFFFFFFFFFFFFFFFFFFFFFFFF",
"FFFFFFFFFFFFFFFFFFFFFFFFFFFFFFFFFFFFFFFFFFFFFFFFFFFFFFFFFFFFFFFxNNNNNxNNNNxNNNNxNxNNNNNNFFFFFFFFFFFFFFFFFFFFFFFFFFFFFFFFFFFFFFFF",
"FFFFFFFFFFFFFFFFFFFFFFFFFFFFFFFFFFFFFFFFFFFFFFFFFFFFFFFFFFFFFNxNNxxxNxxNxNxNxxNxNxxxMNMNNFFFFFFFFFFFFFFFFFFFFFFFFFFFFFFFFFFFFFFF",
"FFFFFFFFFFFFFFFFFFFFFFFFFFFFFFFFFFFFFFFFFFFFFFFFFFFFFFFFFFFFxNNNxxxxxxxxNxxxxxNxxxNNxNxNMNFFFFFFFFFFFFFFFFFFFFFFFFFFFFFFFFFFFFFF",
"FFFFFFFFFFFFFFFFFFFFFFFFFFFFFFFFFFFFFFFFFFFFFFFFFFFFFFFFFFNMMMMxxxxxxxxxxxxxxxxxxxMxMxMxNMMFFFFFFFFFFFFFFFFFFFFFFFFFFFFFFFFFFFFF",
"FFFFFFFFFFFFFFFFFFFFFFFFFFFFFFFFFFFFFFFFFFFFFFFFFFFFFFFFFxMNNNMNxxxxxxMxxMxxxxxxxxxNxxxxxxNMFFFFFFFFFFFFFFFFFFFFFFFFFFFFFFFFFFFF",
"FFFFFFFFFFFFFFFFFFFFFFFFFFFFFFFFFFFFFFFFFFFFFFFFFFFFFFFMMxxMMMMMMMxxxMxxMxMxMxMMxMMMxMxMMMNMMFFFFFFFFFFFFFFFFFFFFFFFFFFFFFFFFFFF",
"FFFFFFFFFFFFFFFFFFFFFFFFFFFFFFFFFFFFFFFFFFFFFFFFFFFFFFMMMMMMMMMMMxMMxMMNMMMMMxMMMxMMMxxMMMMMMMFFFFFFFFFFFFFFFFFFFFFFFFFFFFFFFFFF",
"FFFFFFFFFFFFFFFFFFFFFFFFFFFFFFFFFFFFFFFFFFFFFFFFFFFFFMMMMMMMMMMMMMMMMMMMMMMMMMMMMMMMMMMMMMMMxMMFFFFFFFFFFFFFFFFFFFFFFFFFFFFFFFFF",
"FFFFFFFFFFFFFFFFFFFFFFFFFFFFFFFFFFFFFFFFFFFFFFFFFFFnMMMnMMMMMMMMMMMMnMMMMMMMMMMMMMMMMMMMMMMMMMMMFFFFFFFFFFFFFFFFFFFFFFFFFFFFFFFF",
"FFFFFFFFFFFFFFFFFFFFFFFFFFFFFFFFFFFFFFFFFFFFFFFFFFMMMMMMMMMMMMMMMMnMMMMMMnMMMMMMMMMMMMMMMMnMMMMMMFFFFFFFFFFFFFFFFFFFFFFFFFFFFFFF",
"FFFFFFFFFFFFFFFFFFFFFFFFFFFFFFFFFFFFFFFFFFFFFFFFMMnMMMMMMMMMMMMMnMMnMMMnMMMMnMnMnMnMnMMMMMnMMMMMMMFFFFFFFFFFFFFFFFFFFFFFFFFFFFFF",
"FFFFFFFFFFFFFFFFFFFFFFFFFFFFFFFFFFFFFFFFFFFFFFFMMnnnnMnnnnnnnnnnMnnMnnFFnMnnnMnMnMnMnnnnnMnMnnnnnnMFFFFFFFFFFFFFFFFFFFFFFFFFFFFF",
"FFFFFFFFFFFFFFFFFFFFFFFFFFFFFFFFFFFFFFFFFFFFFFnMnnMnnnnMnMnMnMnnnnMnFFFFnnnMMnnnMnnnMnnMMnnMnnMnMnnMFFFFFFFFFFFFFFFFFFFFFFFFFFFF",
"FFFFFFFFFFFFFFFFFFFFFFFFFFFFFFFFFFFFFFFFFFFFnnnnnMmMMnnnnnnnnMnnnMnFFFFFnMnnnnnnnnnnnnnnnnnnnnnnnnnnnFFFFFFFFFFFFFFFFFFFFFFFFFFF",
"FFFFFFFFFFFFFFFFFFFFFFFFFFFFFFFFFFFFFFFFFFFnnnnnnnnnnnnnnnnnnnnnnFFFFFFFnnnnnnnnnnFnnnnnnnnnnnnnnnnnnnFFFFFFFFFFFFFFFFFFFFFFFFFF",
"FFFFFFFFFFFFFFFFFFFFFFFFFFFFFFFFFFFFFFFFFnnnmnnnnnnnnnnmmnnnnnnFFFFFFFFFmnmnnnnmnnFFmnnnnnnmmnnnnnnmnnnFFFFFFFFFFFFFFFFFFFFFFFFF",
"FFFFFFFFFFFFFFFFFFFFFFFFFFFFFFFFFFFFFFFFnnmnnmmnnmnnnnmnnnnnmFFFFFFFFFFFnmnnnnnnmnFFFDnnnnmnnnmnmnmnnnmnFFFFFFFFFFFFFFFFFFFFFFFF",
"FFFFFFFFFFFFFFFFFFFFFFFFFFFFFFFFFFFFFFFnnvmnmmnnmmmmmmmmmmDFFFFFFFFFFFFmmnmmmnvnmnFFFFFnmnmmmmmnmmmnvmmnmFFFFFFFFFFFFFFFFFFFFFFF",
"FFFFFFFFFFFFFFFFFFFFFFFFFFFFFFFFFFFFFmmmvnvnnvnvmmmmmmmmmFFFFFFFFFFFFFFmmmmmmmmmnvFFFFFFnvmmmmvnnvnvnZnvmmFFFFFFFFFFFFFFFFFFFFFF",
"FFFFFFFFFFFFFFFFFFFFFFFFFFFFFFFFFFFFmmmmnvnvvnvnvmmmmmmmFFFFFFFFFFFFFFFmmmvmmmvmmFFFFFFFFvmmnvnvvnvnvnvnmmvFFFFFFFFFFFFFFFFFFFFF",
"FFFFFFFFFFFFFFFFFFFFFFFFFFFFFFFFFFmmvmmmvnvvmvvnmvmvvmFFFFFFFFFFFFFFFFFmvmvmvmvmvFFFFFFFFFFvvvmvvmvvvnvvvmvmFFFFFFFFFFFFFFFFFFFF",
"FFFFFFFFFFFFFFFFFFFFFFFFFFFFFFFFFmmvmvvmvvmvvmvvmvvmFFFFFFFFFFFFFFFFFFFmvmmvmvmvvFFFFFFFFFFFvmvnmvnvvvvnmvmmDFFFFFFFFFFFFFFFFFFF",
"FFFFFFFFFFFFFFFFFFFFFFFFFFFFFFFvvvvvvvmvvvvvvvvvZvFFFFFFFFFFFFFFFFFFFFFvvvvvvvvvvFFFFFFFFFFFFDvvvvvvvvvvvvvvvvFFFFFFFFFFFFFFFFFF",
"FFFFFFFFFFFFFFFFFFFFFFFFFFFFFFDvvvvvZvvvvvvvvmvvFFFFFFFFFFFFFFFFFFFFFFFvvvvvvvvvvFFFFFFFFFFFFFFvvvvvvvvvvvvvvvvFFFFFFFFFFFFFFFFF",
"FFFFFFFFFFFFFFFFFFFFFFFFFFFFFvcvvvvvvvvvvvvvvvZFFFFFFFFFFFFFFFFFFFFFFFFvvvvvvvvvZFFFFFFFFFFFFFFFvvvvvZvvvvvvvvvmcFFFFFFFFFFFFFFF",
"FFFFFFFFFFFFFFFFFFFFFFFFFFFZvcvcvvcvcvvcvccvZFFFFFFFFFFFFFFFFFFFFFFFFFFvcvcvvccvcFFFFFFFFFFFFFFFFvcvcvvcvvcvvcvcvvFFFFFFFFFFFFFF",
"FFFFFFFFFFFFFFFFFFFFFFFFFFvcvvvvcvvcvcvvvcvFFFFFFFFFFFFFFFFFFFFFFFFFFFFcvvvcvcvvcFFFFFFFFFFFFFFFFFFvvvcvvcvvcvcvcvvFFFFFFFFFFFFF",
"FFFFFFFFFFFFFFFFFFFFFFFFcccvccbvcccvcvcvCFFFFFFFFFFFFFFFFFFFFFFFFFFFFFFvccvccvccDFFFFFFFFFFFFFFFFFFFccvccvccvcvcvccDFFFFFFFFFFFF",
"FFFFFFFFFFFFFFFFFFFFFFFZcvccccvccvcccccFFFFFFFFFFFFFFFFFFFFFFFFFFFFFFFFcvcccccccFFFFFFFFFFFFFFFFFFFFFcccvccccccvcccccFFFFFFFFFFF",
"FFFFFFFFFFFFFFFFFFFFFFcccccccccvccccccFFFFFFFFFFFFFFFFFFFFFFFFFFFFFFFFccccccccccFFFFFFFFFFFFFFFFFFFFFFFcccccccccccccccFFFFFFFFFF",
"FFFFFFFFFFFFFFFFFFFFZSccScCcbCcccccCFFFFFFFFFFFFFFFFFFFFFFFFFFFFFFFFFFcccCbcbcccFFFFFFFFFFFFFFFFFFFFFFFFCbccCcbcccbccbFFFFFFFFFF",
"FFFFFFFFFFFFFFFFFFFbccScccbcccbbbSFFFFFFFFFFFFFFFFFFFFFFFFFFFFFFFFFFFFZScccCcCCcFFFFFFFFFFFFFFFFFFFFFFFFFccbcbcbcbFFFFFFFFFFFFFF",
"FFFFFFFFFFFFFFFFFCbCScScbcCbScbSFFFFFFFFFFFFFFFFFFFFFFFFFFFFFFFFFFFFFFCbcScbbcS$FFFFFFFFFFFFFFFFFFFFFFFFFFFcbbFFFFFFFFFFFFFFFFFF",
"FFFFFFFFFFFFFFFFcc$ccbcbcScbbbFFFFFFFFFFFFFFFFFFFFFFFFFFFFFFFFFFFFFFFFbbbcScbbcCFFFFFFFFFFFFFFFFFFFFFFFFFFFFFFFFFFFFFFFFFFFFFFFF",
"FFFFFFFFFFFFFFFbcb$c$b$bbbbbSFFFFFFFFFFFFFFFFFFFFFFFFFFFFFFFFFFFFFFFFFbbb$b$bbbSFFFFFFFFFFFFFFFFFFFFFFFFFFFFFFFFFFFFFFFFFSbFFFFF",
"FFFFFFFFFFFFFSbb,cc,bbbbbbSFFFFFFFFFFFFFFFFFFFFFFFFFFFFFFFFFFFFFFFFFFFbbbbbbbbbbFFFFFFFFFFFFFFFFFFFFFFFFFFFFFFFFFFFFFFSbbbbSFFFF",
"FFFFFFFFFFFFb$$$b$$b$bbb,FFFFFFFFFFFFFFFFFFFFFFFFFFFFFFFFFFFFFFFFFFFFFbb$bbbb$$FFFFFFFFFFFFFFFFFFFFFFFFFFFFFFFFFFFbbb$b$%bbbbFFF",
"FFFFFFFFFFC,$b$$$$$$$$SFFFFFFFFFFFFFFFFFFFFFFFFFFFFFFFFFFFFFFFFFFFFFFF$$$$$$$$bFFFFFFFFFFFFFFFFFFFFFFFFFFFFFFFFb$b%b$b%b%b%bbbFF",
"FFFFFFFFFS,$,S,S$,SS,FFFFFFFFFFFFFFFFFFFFFFFFFFFFFFFFFFFFFFFFFFFFFFFFF,,S,S,$SbFFFFFFFFFFFFFFFFFFFFFFFFFFFFF,$,$,,b,c,,,C$C,$C$F",
"FFFFFFFF,,,S$,,SS,,,FFFFFFFFFFFFFFFFFFFFFFFFFFFFFFFFFFFFFFFFFFFFFFFFFF,S,b,b,,,FFFFFFFFFFFFFFFFFFFFFFFFFS,,,S,S,,S,S,,S,,,,,,,,,",
"FFFFFF,,,,,,,,$,$,FFFFFFFFFFFFFFFFFFFFFFFFFFFFFFFFFFFFFFFFFFFFFFFFFFFF,,,$,,,,,FFFFFFFFFFFFFFFFFFFFFF,,@,,$,,$,,,$$,,,,,,,,$,,SF",
"FFFFF,,,$,,,,,,,FFFFFFFFFFFFFFFFFFFFFFFFFFFFFFFFFFFFFFFFFFFFFFFFFFFFF$,@,,,,,,$FFFFFFFFFFFFFFFFFFF,,,,,,,,,,,,,,,,,,$,,,,$,,,%FF",
"FFF<,,%,,,,,%<FFFFFFFFFFFFFFFFFFFFFFFFFFFFFFFFFFFFFFFFFFFFFFFFFFFFFFF:%<@<,,$%,FFFFFFFFFFFFFFF<<,,,,%<@,,,,,,,%,<$,%<@@,<%,,$FFF",
"FF,<,,<,,@@,FFFFFFFFFFFFFFFFFFFFFFFFFFFFFFFFFFFFFFFFFFFFFFFFFFFFFFFFF,,,,%<,,<SFFFFFFFFFFFF,,,,,,,,%<,,,,%<%,,<@%<<,,,<%@<,,@FFF",
"F,<%<@%<<<<,FFFFFFFFFFFFFFFFFFFFFFFFFFFFFFFFFFFFFFFFFFFFFFFFFFFFFFFFF%%@,<<@<<FFFFFFFFFF<<<@<,<@<@<%@,<<@<@,@<<@#<,@<@,<,,<#FFFF",
"F#@<<<<<<<<<<,<FFFFFFFFFFFFFFFFFFFFFFFFFFFFFFFFFFFFFFFFFFFFFFFFFFFFFF2<<<<<<<,FFFFFFFFF#,<<<<<<<<<<<<<<<,<<<<<<>,<<<<<<<<<,FFFFF",
"FF:<><><::#:<:><<<>,FFFFFFFFFFFFFFFFFFFFFFFFFFFFFFFFFFFFFFFFFFFFFFFFF<<<<::#<:FFFFFFFF#<<><@><><<:<::<:>><<<:<<<><<><<><>#FFFFFF",
"FFF<<<<#><<>>#@<<<<<#<<<FFFFFFFFFFFFFFFFFFFFFFFFFFFFFFFFFFFFFFFFFFFFF<>>#:<>><FFFFFFFF<<><>><><<<>#<#>#<<<><FF<<<@><>><><FFFFFFF",
"FFFF>>>>><#><:><>:><<>:>><<:FFFFFFFFFFFFFFFFFFFFFFFFFFFFFFFFFFFFFFFFF<><><>:<>FFFFFFF><><><:>><>>#:><>>::FFFFF<>>>#:#:><:FFFFFFF",
"FFFFF<><>>>>>>>>>>>>>>>>>>><><>>FFFFFFFFFFFFFFFFFFFFFFFFFFFFFFFFFFFFF>>>>>>#><FFFFFFF<>>>>>>#>>>>>>>><FFFFFFF<>>>>>>>><>FFFFFFFF",
"FFFFFF+>#>>>>>>>>>>>>>>>>>>>>>>>>>>2FFFFFFFFFFFFFFFFFFFFFFFFFFFFFFFF>>>>>>>>>>FFFFFF:*>>>*>>>>>>><FFFFFFFFFF<>>>>>#>>>>FFFFFFFFF",
"FFFFFFF>:*>>>*>>>>*>>>>>*>*>>>>>>>>>>>>>FFFFFFFFFFFFFFFFFFFFFFFF>>>>>*>>*>>>*>FFFFFF>>>>>##>>>>FFFFFFFFFFFF4*>>>>>>*>*FFFFFFFFFF",
"FFFFFFFF+>>>>>>**>*>*>*>>*>>*>*>>>j*>>*>>>>>FFFFFFFFFFFFFFFFF->>>>>*>>>*>*>*>>FFFFF->>>*>>**FFFFFFFFFFFFFFF>*>>*>>>*>-FFFFFFFFFF",
"FFFFFFFFF******>*>*>>*>**>*>*>>*4>>>j>>*j>j>>*>FFFFFFFFFFF*>>>*>**>**>*>*>>**FFFFFF*>*>**FFFFFFFFFFFFFFFFF>*>*>***>*>FFFFFFFFFFF",
"FFFFFFFFFFj>>*>*>j*>>j*>>*>*****j>>j>*>j*>*>>*>**>>:FFF***>**********>*******FFFFFF>*FFFFFFFFFFFFFFFFFFFFj>>j>>**j>4FFFFFFFFFFFF",
"FFFFFFFFFFF*****j>***>*FF***>>**>**>j>j>***************>>>j>*>*>*>*>***>*>>*>FFFFFFFFFFFFFFFFFFFFFFFFFFF&4j>>jj>*>jFFFFFFFFFFFFF",
"FFFFFFFFFFFFj*+*****j*j:FFFF***>j****j>jj***j****j****j*jj**************j****FFFFFFFFFFFFFFFFFFFFFFFFFFFj***jj****FFFFFFFFFFFFFF",
"FFFFFFFFFFFFAj+j******>jjFFFFFF-j***j>j>**************>j**j******j**********jFFFFFFFFFFFFFFFFFFFFFFFFFFj***jj>**jzFFFFFFFFFFFFFF",
"FFFFFFFFFFFFFjjjjj*j*j*+jjFFFFFFFFFjj*jjjj*j*j***j****j>j>jj*j**j**j*j*j*j**jFFFFFFFFFFFFFFFFFFFFFFFFF4j**j>*j4j*FFFFFFFFFFFFFFF",
"FFFFFFFFFFFFFFjj*j*jjjjjj*gFFFFFFFFFFFjj**j**jjjjjjjjjjjjjjjjjjjjjj**jjjjjjjjFFFFFFFFFFFFFFFFFFFFFFFF;jjjjjjj*jjFFFFFFFFFFFFFFFF",
"FFFFFFFFFFFFFFF3jjjjjjjjjjj2FFFFFFFFFFFFFjjjjjjjjjjjjjjjjj*jj*jj*FFF*jjjjjjjzFFFFFFFFFFFFFFFFFFFFFFFFjjjjjjjjjgFFFFFFFFFFFFFFFFF",
"FFFFFFFFFFFFFFFFhjjjjjjjjjjjgFFFFFFFFFFFFFFFFjjjjjjjjjjjjjjjjjFFFFFFjjjjjjjjFFFFFFFFFFFFFFFFFFFFFFFFjjjjjjjjjjFFFFFFFFFFFFFFFFFF",
"FFFFFFFFFFFFFFFFFjjjjjjjjjjjjgFFFFFFFFFFFFFFFFFFjjjjjjjgjj*FFFFFFFFFjjjjjjjgFFFFFFFFFFFFFFFFFFFFFFFljjj=jjgjjzFFFFFFFFFFFFFFFFFF",
"FFFFFFFFFFFFFFFFFFgjgjgggjjgjg2FFFFFFFFFFFFFFFFFFFFjgjgjgjFFFFFFFFFFjgjgjjjjFFFFFFFFFFFFFFFFFFFFFF<jjgggjjgjjFFFFFFFFFFFFFFFFFFF",
"FFFFFFFFFFFFFFFFFFF2ggjggjgjgggFFFFFFFFFFFFFFFFFFFFzggjggjFFFFFFFFFFgjgjgjjgFFFFFFFFFFFFFFFFFFFFFFgjgjgjgjgjFFFFFFFFFFFFFFFFFFFF",
"FFFFFFFFFFFFFFFFFFFFgjgggjgggjgjFFFFFFFFFFFFFFFFFFFjjjgggjFFFFFFFFFFgggjggggFFFFFFFFFFFFFFFFFFFFFggggjgggggFFFFFFFFFFFFFFFFFFFFF",
"FFFFFFFFFFFFFFFFFFFFFggggggggggggFFFFFFFFFFFFFFFFFFFggggggzFFFFFFFFFgggggggjFFFFFFFFFFFFFFFFFFFF*ggjggjgggFFFFFFFFFFFFFFFFFFFFFF",
"FFFFFFFFFFFFFFFFFFFFFF*hggggggggggFFFFFFFFFFFFFFFFFFgggggggFFFFFFFFFggggggggFFFFFFFFFFFFFFFFFFFFgggggggggtFFFFFFFFFFFFFFFFFFFFFF",
"FFFFFFFFFFFFFFFFFFFFFFFtggrggggrgghFFFFFFFFFFFFFFFFFggggrggFFFFFFFFFgrggggghFFFFFFFFFFFFFFFFFFFgggrrgggrgFFFFFFFFFFFFFFFFFFFFFFF",
"FFFFFFFFFFFFFFFFFFFFFFFFrgggggggggggFFFFFFFFFFFFFFFF-rgrgggFFFFFFFFFggrrggg-FFFFFFFFFFFFFFFFFFjtrggggugrFFFFFFFFFFFFFFFFFFFFFFFF",
"FFFFFFFFFFFFFFFFFFFFFFFFFthhggtggrhgtFFFFFFFFFFFFFFFFlgrgrggFFFFFFFFghgrhgrFFFFFFFFFFFFFFFFFFtggrgghggtFFFFFFFFFFFFFFFFFFFFFFFFF",
"FFFFFFFFFFFFFFFFFFFFFFFFFFjtrrgtrrrrrrFFFFFFFFFFFFFFFgrrrrrgFFFFFFFFrrhrrrrFFFFFFFFFFFFFFFFFFhtgrrrrrhFFFFFFFFFFFFFFFFFFFFFFFFFF",
"FFFFFFFFFFFFFFFFFFFFFFFFFFFtgrtgrrrrrrrFFFFFFFFFFFFFFhrrrrrrFFFFFFFFrrrrrrrFFFFFFFFFFFFFFFFFggttrrrrrdFFFFFFFFFFFFFFFFFFFFFFFFFF",
"FFFFFFFFFFFFFFFFFFFFFFFFFFFFttrrrrrrrrrtFFFFFFFFFFFFFFrrtrrrFFFFFFFrrrrrrrrFFFFFFFFFFFFFFFFttttgrrrrrFFFFFFFFFFFFFFFFFFFFFFFFFFF",
"FFFFFFFFFFFFFFFFFFFFFFFFFFFFFgttttrtritthFFFFFFFFFFFFFrrrrrtFFFFFFFrtrtrtrtFFFFFFFFFFFFFFFirirrrtrrtFFFFFFFFFFFFFFFFFFFFFFFFFFFF",
"FFFFFFFFFFFFFFFFFFFFFFFFFFFFFFarrtttttttreFFFFFFFFFFFFerrettiFFFFFFttttitttFFFFFFFFFFFFFFFtrtttttteFFFFFFFFFFFFFFFFFFFFFFFFFFFFF",
"FFFFFFFFFFFFFFFFFFFFFFFFFFFFFFFtttttttttttrFFFFFFFFFFFFtetttrFFFFFFttttttttFFFFFFFFFFFFFFtrttttttt3FFFFFFFFFFFFFFFFFFFFFFFFFFFFF",
"FFFFFFFFFFFFFFFFFFFFFFFFFFFFFFFFptttttttettpFFFFFFFFFFFtirtttFFFFFFettttttiFFFFFFFFFFFFFettettettlFFFFFFFFFFFFFFFFFFFFFFFFFFFFFF",
"FFFFFFFFFFFFFFFFFFFFFFFFFFFFFFFFFrettttttttttFFFFFFFFFFtetettFFFFFFttettttFFFFFFFFFFFFFztttttttttFFFFFFFFFFFFFFFFFFFFFFFFFFFFFFF",
"FFFFFFFFFFFFFFFFFFFFFFFFFFFFFFFFFFetetetetetetFFFFFFFFFatttttiFFFFFettteteFFFFFFFFFFFFFeteteetetFFFFFFFFFFFFFFFFFFFFFFFFFFFFFFFF",
"FFFFFFFFFFFFFFFFFFFFFFFFFFFFFFFFFFFtetteeettteaFFFFFFFFFeeetetFFFFFtteeeetFFFFFFFFFFFFtteteeeteFFFFFFFFFFFFFFFFFFFFFFFFFFFFFFFFF",
"FFFFFFFFFFFFFFFFFFFFFFFFFFFFFFFFFFFFeaeeteeeeteiFFFFFFFFetateeFFFFFeeetttaFFFFFFFFFFFaeeeeette3FFFFFFFFFFFFFFFFFFFFFFFFFFFFFFFFF",
"FFFFFFFFFFFFFFFFFFFFFFFFFFFFFFFFFFFFFpeteeeeeeeepFFFFFFFeeeeeeFFFFFtaeeeaeFFFFFFFFFFteeeeteeeaFFFFFFFFFFFFFFFFFFFFFFFFFFFFFFFFFF",
"FFFFFFFFFFFFFFFFFFFFFFFFFFFFFFFFFFFFFFeeeeeeeeeeeeFFFFFFFeeeeeeFFFFeeeeeeeFFFFFFFFFFeeeeeaeeeFFFFFFFFFFFFFFFFFFFFFFFFFFFFFFFFFFF",
"FFFFFFFFFFFFFFFFFFFFFFFFFFFFFFFFFFFFFFF8eeeeeeeeeeeFFFFFFeeeeeeFFFFeeeeeeeFFFFFFFFFaeeeeeeeeFFFFFFFFFFFFFFFFFFFFFFFFFFFFFFFFFFFF",
"FFFFFFFFFFFFFFFFFFFFFFFFFFFFFFFFFFFFFFFzeepepeeapeepFFFFFpeapepFFFFpepepepFFFFFFFFpeepepep8FFFFFFFFFFFFFFFFFFFFFFFFFFFFFFFFFFFFF",
"FFFFFFFFFFFFFFFFFFFFFFFFFFFFFFFFFFFFFFFFapeeppeepeeeeFFFFappepeFFFFeeepeeFFFFFFFFaeeeepeep=FFFFFFFFFFFFFFFFFFFFFFFFFFFFFFFFFFFFF",
"FFFFFFFFFFFFFFFFFFFFFFFFFFFFFFFFFFFFFFFFFpe8ppppe88e88FFFFpee8pFFFFp8ppppFFFFFFFF5888pppesFFFFFFFFFFFFFFFFFFFFFFFFFFFFFFFFFFFFFF",
"FFFFFFFFFFFFFFFFFFFFFFFFFFFFFFFFFFFFFFFFFFq8pppp88p8p8kFFF8e88e8FFFpp8pppFFFFFFFep8epppp8FFFFFFFFFFFFFFFFFFFFFFFFFFFFFFFFFFFFFFF",
"FFFFFFFFFFFFFFFFFFFFFFFFFFFFFFFFFFFFFFFFFFFk8p8p8e8epp8qFF8pe88yFFF88ep88FFFFFF888e8p88pFFFFFFFFFFFFFFFFFFFFFFFFFFFFFFFFFFFFFFFF",
"FFFFFFFFFFFFFFFFFFFFFFFFFFFFFFFFFFFFFFFFFFFFqpp8a8p88p88pFFp8ep8FFF8pa8ppFFFFFF8ep8ppp8FFFFFFFFFFFFFFFFFFFFFFFFFFFFFFFFFFFFFFFFF",
"FFFFFFFFFFFFFFFFFFFFFFFFFFFFFFFFFFFFFFFFFFFFFq888p888pp88qF88885FFF888888FFFFFp888888qkFFFFFFFFFFFFFFFFFFFFFFFFFFFFFFFFFFFFFFFFF",
"FFFFFFFFFFFFFFFFFFFFFFFFFFFFFFFFFFFFFFFFFFFFFFi888888q8888F888888FF888888FFFFq888888qeFFFFFFFFFFFFFFFFFFFFFFFFFFFFFFFFFFFFFFFFFF",
"FFFFFFFFFFFFFFFFFFFFFFFFFFFFFFFFFFFFFFFFFFFFFFFqq8888888888q88888FF88q888FFFw88888888FFFFFFFFFFFFFFFFFFFFFFFFFFFFFFFFFFFFFFFFFFF",
"FFFFFFFFFFFFFFFFFFFFFFFFFFFFFFFFFFFFFFFFFFFFFFFFqq8q8q888688q58qqFF8q88qqFFFq8q8q8qqFFFFFFFFFFFFFFFFFFFFFFFFFFFFFFFFFFFFFFFFFFFF",
"FFFFFFFFFFFFFFFFFFFFFFFFFFFFFFFFFFFFFFFFFFFFFFFFF6qqqqqq6886qq87qFFqqqqqFFF6qq8qqq9FFFFFFFFFFFFFFFFFFFFFFFFFFFFFFFFFFFFFFFFFFFFF",
"FFFFFFFFFFFFFFFFFFFFFFFFFFFFFFFFFFFFFFFFFFFFFFFFFFe6qqqqqqqqqqqqqwFqqqqqFF9qqqqqq9kFFFFFFFFFFFFFFFFFFFFFFFFFFFFFFFFFFFFFFFFFFFFF",
"FFFFFFFFFFFFFFFFFFFFFFFFFFFFFFFFFFFFFFFFFFFFFFFFFFF6qq6q6qq6qq99qqFqqqq6Fy9qqq6qqwFFFFFFFFFFFFFFFFFFFFFFFFFFFFFFFFFFFFFFFFFFFFFF",
"FFFFFFFFFFFFFFFFFFFFFFFFFFFFFFFFFFFFFFFFFFFFFFFFFFFF9999qq997q99999977qqq9999q99qFFFFFFFFFFFFFFFFFFFFFFFFFFFFFFFFFFFFFFFFFFFFFFF",
"FFFFFFFFFFFFFFFFFFFFFFFFFFFFFFFFFFFFFFFFFFFFFFFFFFFFFq996699999999997q6q99999999FFFFFFFFFFFFFFFFFFFFFFFFFFFFFFFFFFFFFFFFFFFFFFFF",
"FFFFFFFFFFFFFFFFFFFFFFFFFFFFFFFFFFFFFFFFFFFFFFFFFFFFFF0960779779997797609999999FFFFFFFFFFFFFFFFFFFFFFFFFFFFFFFFFFFFFFFFFFFFFFFFF",
"FFFFFFFFFFFFFFFFFFFFFFFFFFFFFFFFFFFFFFFFFFFFFFFFFFFFFFF006607777797770067000908FFFFFFFFFFFFFFFFFFFFFFFFFFFFFFFFFFFFFFFFFFFFFFFFF",
"FFFFFFFFFFFFFFFFFFFFFFFFFFFFFFFFFFFFFFFFFFFFFFFFFFFFFFFFX9w00000979o0009000000FFFFFFFFFFFFFFFFFFFFFFFFFFFFFFFFFFFFFFFFFFFFFFFFFF",
"FFFFFFFFFFFFFFFFFFFFFFFFFFFFFFFFFFFFFFFFFFFFFFFFFFFFFFFFFw000000o9o9000000009FFFFFFFFFFFFFFFFFFFFFFFFFFFFFFFFFFFFFFFFFFFFFFFFFFF",
"FFFFFFFFFFFFFFFFFFFFFFFFFFFFFFFFFFFFFFFFFFFFFFFFFFFFFFFFFFO00000o99o00000000FFFFFFFFFFFFFFFFFFFFFFFFFFFFFFFFFFFFFFFFFFFFFFFFFFFF",
"FFFFFFFFFFFFFFFFFFFFFFFFFFFFFFFFFFFFFFFFFFFFFFFFFFFFFFFFFFF0000000o00o0000oFFFFFFFFFFFFFFFFFFFFFFFFFFFFFFFFFFFFFFFFFFFFFFFFFFFFF",
"FFFFFFFFFFFFFFFFFFFFFFFFFFFFFFFFFFFFFFFFFFFFFFFFFFFFFFFFFFFF00Ooo00o0o0oo0oFFFFFFFFFFFFFFFFFFFFFFFFFFFFFFFFFFFFFFFFFFFFFFFFFFFFF",
"FFFFFFFFFFFFFFFFFFFFFFFFFFFFFFFFFFFFFFFFFFFFFFFFFFFFFFFFFFFFFfo0ooo00oo00.FFFFFFFFFFFFFFFFFFFFFFFFFFFFFFFFFFFFFFFFFFFFFFFFFFFFFF",
"FFFFFFFFFFFFFFFFFFFFFFFFFFFFFFFFFFFFFFFFFFFFFFFFFFFFFFFFFFFFFFoOoooooooo0FFFFFFFFFFFFFFFFFFFFFFFFFFFFFFFFFFFFFFFFFFFFFFFFFFFFFFF",
"FFFFFFFFFFFFFFFFFFFFFFFFFFFFFFFFFFFFFFFFFFFFFFFFFFFFFFFFFFFFFFFfooooooooFFFFFFFFFFFFFFFFFFFFFFFFFFFFFFFFFFFFFFFFFFFFFFFFFFFFFFFF",
"FFFFFFFFFFFFFFFFFFFFFFFFFFFFFFFFFFFFFFFFFFFFFFFFFFFFFFFFFFFFFFFFOOOOooOFFFFFFFFFFFFFFFFFFFFFFFFFFFFFFFFFFFFFFFFFFFFFFFFFFFFFFFFF",
"FFFFFFFFFFFFFFFFFFFFFFFFFFFFFFFFFFFFFFFFFFFFFFFFFFFFFFFFFFFFFFFFFOOOoOXFFFFFFFFFFFFFFFFFFFFFFFFFFFFFFFFFFFFFFFFFFFFFFFFFFFFFFFFF",
"FFFFFFFFFFFFFFFFFFFFFFFFFFFFFFFFFFFFFFFFFFFFFFFFFFFFFFFFFFFFFFFFFFOXXXFFFFFFFFFFFFFFFFFFFFFFFFFFFFFFFFFFFFFFFFFFFFFFFFFFFFFFFFFF",
"FFFFFFFFFFFFFFFFFFFFFFFFFFFFFFFFFFFFFFFFFFFFFFFFFFFFFFFFFFFFFFFFFFFOXFFFFFFFFFFFFFFFFFFFFFFFFFFFFFFFFFFFFFFFFFFFFFFFFFFFFFFFFFFF",
"FFFFFFFFFFFFFFFFFFFFFFFFFFFFFFFFFFFFFFFFFFFFFFFFFFFFFFFFFFFFFFFFFFFFFFFFFFFFFFFFFFFFFFFFFFFFFFFFFFFFFFFFFFFFFFFFFFFFFFFFFFFFFFFF",
"FFFFFFFFFFFFFFFFFFFFFFFFFFFFFFFFFFFFFFFFFFFFFFFFFFFFFFFFFFFFFFFFFFFFFFFFFFFFFFFFFFFFFFFFFFFFFFFFFFFFFFFFFFFFFFFFFFFFFFFFFFFFFFFF",
"FFFFFFFFFFFFFFFFFFFFFFFFFFFFFFFFFFFFFFFFFFFFFFFFFFFFFFFFFFFFFFFFFFFFFFFFFFFFFFFFFFFFFFFFFFFFFFFFFFFFFFFFFFFFFFFFFFFFFFFFFFFFFFFF",
"FFFFFFFFFFFFFFFFFFFFFFFFFFFFFFFFFFFFFFFFFFFFFFFFFFFFFFFFFFFFFFFFFFFFFFFFFFFFFFFFFFFFFFFFFFFFFFFFFFFFFFFFFFFFFFFFFFFFFFFFFFFFFFFF"
};
