/* XPM */
static char *result[] = {
/* columns rows colors chars-per-pixel */
"16 16 72 1 ",
"  c #586FED",
". c #35BCDF",
"X c #3BAEE3",
"o c #3FACE2",
"O c #3EADE2",
"+ c #3EACE3",
"@ c #3DAEE2",
"# c #3DAEE3",
"$ c #3EAEE2",
"% c #35B6E3",
"& c #39B3E1",
"* c #3DB0E0",
"= c #39B4E1",
"- c #39B5E1",
"; c #38B4E2",
": c #39B4E2",
"> c #39B6E2",
", c #39B2E5",
"< c #34B8E1",
"1 c #36B8E2",
"2 c #33BEE0",
"3 c #32BDE2",
"4 c #34BCE0",
"5 c #35BCE0",
"6 c #3BB0E9",
"7 c #33BBE9",
"8 c #5D83E7",
"9 c #5987E7",
"0 c #5280EA",
"q c #5486EA",
"w c #548AE8",
"e c #558CE9",
"r c #568CE8",
"t c #4D97E5",
"y c #4B99E5",
"u c #4A9AE6",
"i c #4F93E8",
"p c #4D9AE9",
"a c #489DE9",
"s c #5190E6",
"d c #5192E8",
"f c #41A7E3",
"g c #44A7E3",
"h c #46A0E5",
"j c #42A7E4",
"k c #43A5E6",
"l c #45A4E6",
"z c #42A8E0",
"x c #40AAE4",
"c c #43A5E8",
"v c #43A4E9",
"b c #45A4EA",
"n c #40A9E8",
"m c #40B0E8",
"M c #1EDFDA",
"N c #2BCADE",
"B c #2BCBDE",
"V c #29CCDF",
"C c #2ACCDE",
"Z c #31C3DF",
"A c #30C4DF",
"S c #27D1DD",
"D c #26D2DD",
"F c #23D8DB",
"G c #22D9DC",
"H c #23D9DC",
"J c #1DE0DA",
"K c #1DE0DB",
"L c #19E8DA",
"P c #2BC5EB",
"I c #25CEEB",
"U c None",
/* pixels */
"UUUUUUUUULUUUUUU",
"UUUUUUUUJMKUUUUU",
"UUUUUUGFFGFHUUUU",
"UUUUUSDUUSSDSUUU",
"UUUBNVUUUNUUCNUU",
"UUAZUUUUUAUUUUUU",
"U4UUUUUUU2UU<5.3",
"I*;=UUUU:>U-1%&U",
"UPz,Oo#@$+UUUXUU",
"UU7jUUfUxgUUkmUU",
"UUU6nUUUhUUblUUU",
"UUUUcvUtyUUuUUUU",
"UUUUUardsUiUUUUU",
"UUUUUUp9weUUUUUU",
"UUUUUUUq80UUUUUU",
"UUUUUUUU UUUUUUU"
};
