/* XPM */
static char *result[] = {
/* columns rows colors chars-per-pixel */
"48 48 49 1 ",
"  c #4F69EA",
". c #5D73EC",
"X c #5C7DEA",
"o c #3CAFDF",
"O c #34BEDF",
"+ c #3EADE2",
"@ c #34AFE9",
"# c #3FAAEA",
"$ c #36B7E2",
"% c #3AB3E1",
"& c #35BBE0",
"* c #38B9E2",
"= c #3AB7E9",
"- c #36B9E8",
"; c #45A2DF",
": c #5786E7",
"> c #5B80E7",
", c #538CE6",
"< c #5786E8",
"1 c #5A83E8",
"2 c #558AE9",
"3 c #4D95E5",
"4 c #479FE4",
"5 c #4A9BE4",
"6 c #4F95E9",
"7 c #479FEA",
"8 c #499BEA",
"9 c #5091E5",
"0 c #5194EB",
"q c #5193F0",
"w c #6388E7",
"e c #6082E8",
"r c #44A4E3",
"t c #41A9E3",
"y c #45A3E9",
"u c #44A8EC",
"i c #1FDEDB",
"p c #2EC6DE",
"a c #2ACCDD",
"s c #31C1DF",
"d c #26D3DC",
"f c #28D0DD",
"g c #22D9DC",
"h c #1BE3DA",
"j c #17E9DA",
"k c #2DC6E0",
"l c #2BCAE0",
"z c #30C3E0",
"x c None",
/* pixels */
"xxxxxxxxxxxxxxxxxxxxxxxxxxxxjxxxxxxxxxxxxxxxxxxx",
"xxxxxxxxxxxxxxxxxxxxxxxxxxxhhjxxxxxxxxxxxxxxxxxx",
"xxxxxxxxxxxxxxxxxxxxxxxxxhhhhhhxxxxxxxxxxxxxxxxx",
"xxxxxxxxxxxxxxxxxxxxxxxxhhhhhhhhxxxxxxxxxxxxxxxx",
"xxxxxxxxxxxxxxxxxxxxxxxhhhhhgghghxxxxxxxxxxxxxxx",
"xxxxxxxxxxxxxxxxxxxxxgghggggghghiigxxxxxxxxxxxxx",
"xxxxxxxxxxxxxxxxxxxxggggggggggggggggxxxxxxxxxxxx",
"xxxxxxxxxxxxxxxxxxgggggggggggggggggggxxxxxxxxxxx",
"xxxxxxxxxxxxxxxxxgdddgdgdxxdgdgddgddggxxxxxxxxxx",
"xxxxxxxxxxxxxxxxddddddddxxxddddddddddfdxxxxxxxxx",
"xxxxxxxxxxxxxxffdadffdxxxxxffdfxxdfffffdxxxxxxxx",
"xxxxxxxxxxxxxafffaafxxxxxxxffaxxxxaffafafxxxxxxx",
"xxxxxxxxxxxaaaaaaaxxxxxxxxxaafxxxxxaaaapaaxxxxxx",
"xxxxxxxxxxappaapaxxxxxxxxxxpppxxxxxxxapaasaxxxxx",
"xxxxxxxxxppppplxxxxxxxxxxxppppxxxxxxxxsaasasxxxx",
"xxxxxxxpspppkxxxxxxxxxxxxxlspkxxxxxxxxxaszaxxxxx",
"xxxxxxsssszxxxxxxxxxxxxxxxzsspxxxxxxxxxxxxxxxxxx",
"xxxxzsssOxxxxxxxxxxxxxxxxxzzOsxxxxxxxxxxxxxOzOsx",
"xxxz&&&&xxxxxxxxxxxxxxxxxx&&&zxxxxxxxxxx&z&&&z&&",
"xx&&&&xxxxxxxxxxxxxxxxxxxx&&&&xxxxxx*O*O&&&&&&Ox",
"*&O**xxxxxxxxxxxxxxxxxxxxxO**xxxx***&oO**OOO$oxx",
"x;o*%O$$xxxxxxxxxxxxxxxxxx%$$xxx$%$o*$%$$$*oO=xx",
"xx$o$%%%o%$%xxxxxxxxxxxxxx%%%xxx%%%%$$xxxo%$$xxx",
"xxx$t%%%%%t%%%%%xxxxxxx%%%+%%xx%%%xxxxxx%%%txxxx",
"xxxxt%t%%%t%%t%tt%%$t%%%++%++xxxxxxxxxx++++xxxxx",
"xxxxx;tttxxxttt%+ttt+tttt++t+xxxxxxxxx@++++xxxxx",
"xxxxxxttttxxxxxxttttttttx+tttxxxxxxxxxt+t-xxxxxx",
"xxxxxxxtrrrxxxxxxxxtttxxxtttrxxxxxxxxrtrrxxxxxxx",
"xxxxxxxxrrrrxxxxxxxtrrxxxrrrxxxxxxxxtrrrxxxxxxxx",
"xxxxxxxxx3rrrxxxxxxxyrxxxrrrxxxxxxxxrrrxxxxxxxxx",
"xxxxxxxxxx54y4xxxxxxy4xxxry4xxxxxxx4r4uxxxxxxxxx",
"xxxxxxxxxxx4443xxxxx544xx444xxxxxx4443xxxxxxxxxx",
"xxxxxxxxxxxx5559xxxx554xx555xxxxx855yxxxxxxxxxxx",
"xxxxxxxxxxxxx9435xxxx55xx553xxxxx553xxxxxxxxxxxx",
"xxxxxxxxxxxxxu9335xxx95xx536xxxx333xxxxxxxxxxxxx",
"xxxxxxxxxxxxxx5339,xx099x393xxx6333xxxxxxxxxxxxx",
"xxxxxxxxxxxxxxx99999xx90x999xx60,6xxxxxxxxxxxxxx",
"xxxxxxxxxxxxxxxx829,6x,9x,9xxx,9,xxxxxxxxxxxxxxx",
"xxxxxxxxxxxxxxxxx82,,,2,x,,xx9,2xxxxxxxxxxxxxxxx",
"xxxxxxxxxxxxxxxxxx2,<,2,<,,x2<,xxxxxxxxxxxxxxxxx",
"xxxxxxxxxxxxxxxxxxx11<<<<<<<<<qxxxxxxxxxxxxxxxxx",
"xxxxxxxxxxxxxxxxxxxx21<<<<<<<,xxxxxxxxxxxxxxxxxx",
"xxxxxxxxxxxxxxxxxxxxx011<<111xxxxxxxxxxxxxxxxxxx",
"xxxxxxxxxxxxxxxxxxxxxx.11111xxxxxxxxxxxxxxxxxxxx",
"xxxxxxxxxxxxxxxxxxxxxxxwXXexxxxxxxxxxxxxxxxxxxxx",
"xxxxxxxxxxxxxxxxxxxxxxxxXe xxxxxxxxxxxxxxxxxxxxx",
"xxxxxxxxxxxxxxxxxxxxxxxxx.xxxxxxxxxxxxxxxxxxxxxx",
"xxxxxxxxxxxxxxxxxxxxxxxxxxxxxxxxxxxxxxxxxxxxxxxx"
};
